<?xml version="1.0" standalone="no"?><!DOCTYPE svg PUBLIC "-//W3C//DTD SVG 1.1//EN" "http://www.w3.org/Graphics/SVG/1.1/DTD/svg11.dtd"><svg t="1703265663822" class="icon" viewBox="0 0 1024 1024" version="1.1" xmlns="http://www.w3.org/2000/svg" p-id="4336" xmlns:xlink="http://www.w3.org/1999/xlink" width="24" height="24"><path d="M632.3072 127.0144H391.6928c-26.5728 0-48.128 21.5424-48.128 48.128v673.728c0 26.5728 21.5424 48.128 48.128 48.128h240.6144c26.5728 0 48.128-21.5424 48.128-48.128V175.1424c0-26.5856-21.5552-48.128-48.128-48.128z" fill="#666666" p-id="4337"></path><path d="M247.3216 223.2576c35.3408 0 72.1792 120.3072 72.1792 120.3072h24.064V199.1936h-96.2432v24.064z m0 216.5632c35.3408 0 72.1792 120.3072 72.1792 120.3072h24.064V415.7568h-96.2432v24.064z m0 216.5504c35.3408 0 72.1792 120.3072 72.1792 120.3072h24.064V632.3072h-96.2432v24.064z m433.1136-457.1776v144.3712h24.064s36.8512-120.3072 72.1792-120.3072v-24.064h-96.2432z m0 360.9344h24.064s36.8512-120.3072 72.1792-120.3072v-24.064h-96.2432V560.128z m0 216.5504h24.064s36.8512-120.3072 72.1792-120.3072v-24.064h-96.2432v144.3712z" fill="#333333" p-id="4338"></path><path d="M439.8208 728.3456a72.256 72.1792 90 1 0 144.3584 0 72.256 72.1792 90 1 0-144.3584 0Z" fill="#88C057" p-id="4339"></path><path d="M439.8208 511.7824a72.256 72.1792 90 1 0 144.3584 0 72.256 72.1792 90 1 0-144.3584 0Z" fill="#FFCC66" p-id="4340"></path><path d="M439.8208 295.232a72.256 72.1792 90 1 0 144.3584 0 72.256 72.1792 90 1 0-144.3584 0Z" fill="#ED7161" p-id="4341"></path></svg>