<svg viewBox="0 0 24 24" height="0.6em" width="0.6em" xmlns="http://www.w3.org/2000/svg" class="px-svg common-button__icon" alt=""><path xmlns="http://www.w3.org/2000/svg" d="M5.5 3A2.5 2.5 0 0 0 3 5.5v13A2.5 2.5 0 0 0 5.5 21h13a2.5 2.5 0 0 0 2.5-2.5v-3a1.5 1.5 0 0 1 3 0v3a5.5 5.5 0 0 1-5.5 5.5h-13A5.5 5.5 0 0 1 0 18.5v-13A5.5 5.5 0 0 1 5.5 0h3a1.5 1.5 0 0 1 0 3h-3ZM12 1.5A1.5 1.5 0 0 1 13.5 0h9A1.5 1.5 0 0 1 24 1.5v9a1.5 1.5 0 0 1-3 0V5.122l-6.44 6.44A1.5 1.5 0 1 1 12.44 9.44L18.879 3h-5.38A1.5 1.5 0 0 1 12 1.5Z" fill="#1E90FF" fill-rule="nonzero"></path></svg>