<?xml version="1.0" standalone="no"?><!DOCTYPE svg PUBLIC "-//W3C//DTD SVG 1.1//EN" "http://www.w3.org/Graphics/SVG/1.1/DTD/svg11.dtd"><svg t="1706082421599" class="icon" viewBox="0 0 1024 1024" version="1.1" xmlns="http://www.w3.org/2000/svg" p-id="4370" xmlns:xlink="http://www.w3.org/1999/xlink" width="128" height="128"><path d="M843.648 981.312H89.6a46.08 46.08 0 0 1-46.912-46.848V183.232a46.08 46.08 0 0 1 46.912-46.848H512a46.08 46.08 0 0 1 46.912 46.848 46.08 46.08 0 0 1-46.912 46.848H136.512V887.68H796.8V514.368a46.08 46.08 0 0 1 46.912-46.912 46.08 46.08 0 0 1 46.912 46.912v418.56a47.36 47.36 0 0 1-46.912 48.384zM934.4 420.608a46.08 46.08 0 0 1-46.912-46.848V136.32H649.6a46.08 46.08 0 0 1-46.912-46.784 46.08 46.08 0 0 1 46.912-46.848H934.4a46.08 46.08 0 0 1 46.912 46.848V373.76c0 24.96-21.888 46.848-46.912 46.848z" fill="#ffffff" p-id="4371"></path><path d="M374.336 695.488a45.056 45.056 0 0 1-32.896-14.08c-18.752-18.688-18.752-48.384 0-65.536l538.24-537.28c18.752-18.752 48.448-18.752 65.664 0 18.752 18.752 18.752 48.384 0 65.6l-538.176 537.28a45.056 45.056 0 0 1-32.832 14.08z" fill="#ffffff" p-id="4372"></path></svg>